<svg xmlns="http://www.w3.org/2000/svg" width="96.412" height="76.417" viewBox="0 0 96.412 76.417"><g transform="translate(-291.889 -81.676)"><path d="M345.316,129.39a4.774,4.774,0,1,0,0,9.548v.051a19.1,19.1,0,0,0,38.208.018h0a4.773,4.773,0,1,0,0-9.547V81.676H345.316Zm28.749,1.912a2.864,2.864,0,1,1-2.863,2.864A2.863,2.863,0,0,1,374.065,131.3Zm-19.291.075a2.878,2.878,0,1,1-2.863,2.878A2.885,2.885,0,0,1,354.774,131.377Z" fill="#eb7262"/><path d="M310.993,100.785l-19.1-19.109v76.417H330.1V81.676Zm-9.739,12.28a2.864,2.864,0,1,1,2.864-2.863A2.858,2.858,0,0,1,301.254,113.065Zm19.478,0A2.864,2.864,0,1,1,323.6,110.2,2.858,2.858,0,0,1,320.732,113.065Z" fill="#eb7262"/></g></svg>
