<svg xmlns="http://www.w3.org/2000/svg" width="249.389" height="112.429" viewBox="0 0 249.389 112.429"><g transform="translate(-214.474 -225.326)"><path d="M271.616,229.934v19.817h26.09v4.613h-26.09v21.4h-5.329v-50.44h34.584v4.608Z" fill="currentColor"/><path d="M303.283,256.774c0-11.232,8.212-19.233,19.311-19.233s19.235,8,19.235,19.233-8.139,19.305-19.235,19.305S303.283,268.012,303.283,256.774Zm33.364,0c0-8.86-5.987-14.767-14.053-14.767s-14.121,5.907-14.121,14.767,6.053,14.774,14.121,14.774S336.647,265.634,336.647,256.774Z" fill="currentColor"/><path d="M372.978,275.727l-12.027-15.849-12.108,15.849h-5.76l14.983-19.459L343.8,237.823h5.764l11.386,14.844,11.379-14.844h5.623l-14.264,18.445,15.129,19.459Z" fill="currentColor"/><path d="M285.253,302.114a15.169,15.169,0,0,1,11.2,4.468l.35.338,4.2-4.2-.316-.349c-3.714-4.124-9.13-6.305-15.657-6.305-12.634,0-21.806,8.766-21.806,20.845s9.124,20.843,21.693,20.843a24.083,24.083,0,0,0,15.379-5.181l.179-.15V316.185H294.03v13.183A16.344,16.344,0,0,1,285.2,331.7c-8.872,0-15.311-6.218-15.311-14.789S276.35,302.114,285.253,302.114Z" fill="currentColor"/><rect width="6.447" height="31.113" transform="translate(309.054 306.187)" fill="currentColor"/><path d="M312.28,293.278a4.053,4.053,0,1,0,4.185,3.962A4.035,4.035,0,0,0,312.28,293.278Z" fill="currentColor"/><path d="M339.737,305.9a13.578,13.578,0,0,0-10.016,3.994V294.131h-6.448V337.3h6.216v-3.873a13.466,13.466,0,0,0,10.248,4.213c9.26,0,15.727-6.536,15.727-15.9C355.464,312.415,349,305.9,339.737,305.9Zm-.453,5.766c5.7,0,9.684,4.143,9.684,10.079,0,5.965-3.982,10.129-9.684,10.129-5.669,0-9.626-4.164-9.626-10.129C329.658,315.809,333.615,311.666,339.284,311.666Z" fill="currentColor"/><path d="M376.873,305.9a13.582,13.582,0,0,0-10.017,3.994V294.131h-6.449V337.3h6.221v-3.873a13.455,13.455,0,0,0,10.245,4.213c9.26,0,15.727-6.536,15.727-15.9C392.6,312.415,386.133,305.9,376.873,305.9Zm-.453,5.766c5.7,0,9.684,4.143,9.684,10.079,0,5.965-3.982,10.129-9.684,10.129-5.666,0-9.621-4.164-9.621-10.129C366.8,315.809,370.754,311.666,376.42,311.666Z" fill="currentColor"/><path d="M413.216,305.9c-9.375,0-16.182,6.665-16.182,15.845,0,9.209,6.807,15.9,16.182,15.9,9.342,0,16.122-6.686,16.122-15.9C429.338,312.565,422.558,305.9,413.216,305.9Zm0,25.974c-5.7,0-9.682-4.164-9.682-10.129,0-5.936,3.982-10.079,9.682-10.079,5.664,0,9.619,4.143,9.619,10.079C422.835,327.71,418.88,331.874,413.216,331.874Z" fill="currentColor"/><path d="M450.862,305.9c-4.336,0-7.955,1.393-10.358,3.951v-3.664h-6.221V337.3h6.447V321.289c0-6.049,3.3-9.515,9.05-9.515,5.067,0,7.636,2.8,7.636,8.315V337.3h6.447V319.467C463.863,310.971,459,305.9,450.862,305.9Z" fill="currentColor"/><path d="M398.142,269.629a4.432,4.432,0,1,0,0,8.865v.048a17.737,17.737,0,0,0,35.473.015h0a4.431,4.431,0,1,0,0-8.862V225.326H398.142Zm26.691,1.774a2.658,2.658,0,1,1-2.658,2.662A2.662,2.662,0,0,1,424.833,271.4Zm-17.912.071a2.672,2.672,0,1,1-2.656,2.672A2.674,2.674,0,0,1,406.921,271.474Z" fill="currentColor"/><path d="M232.21,284.052l-17.736-17.743v70.952h35.474V266.309Zm-9.043,11.4a2.66,2.66,0,1,1,2.661-2.661A2.655,2.655,0,0,1,223.167,295.457Zm18.086,0a2.66,2.66,0,1,1,2.661-2.661A2.659,2.659,0,0,1,241.253,295.457Z" fill="currentColor"/></g></svg>
